<?xml version="1.0" encoding="utf-8" ?>
<svg baseProfile="full" height="850px" version="1.1" width="1000px" xmlns="http://www.w3.org/2000/svg" xmlns:ev="http://www.w3.org/2001/xml-events" xmlns:xlink="http://www.w3.org/1999/xlink"><defs><style type="text/css"><![CDATA[
        @import url('https://fonts.googleapis.com/css2?family=Inter:wght@400;600&display=swap');
        
        text { font-family: 'Inter', -apple-system, sans-serif; fill: #2d3436; }
        .layer-bg { rx: 12; ry: 12; stroke-width: 2; fill-opacity: 0.1; }
        .component-box { rx: 8; ry: 8; stroke-width: 1.5; fill: #ffffff; }
        
        .label-title { font-size: 18px; font-weight: 600; text-anchor: middle; fill: #2d3436; }
        .label-header { font-size: 15px; font-weight: 600; text-anchor: middle; }
        .label-text { font-size: 13px; text-anchor: middle; }
        .label-italic { font-size: 11px; font-style: italic; opacity: 0.8; text-anchor: middle; }
        
        /* Layer Colors */
        .color-ds { fill: #0984e3; stroke: #0984e3; }
        .color-cred { fill: #6c5ce7; stroke: #6c5ce7; }
        .color-edaan { fill: #00b894; stroke: #00b894; }
        .color-idsa { fill: #d63031; stroke: #d63031; }
        .color-bigowl { fill: #fdcb6e; stroke: #e17055; }
        
        .arrow { stroke: #636e72; stroke-width: 1.5; fill: none; marker-end: url(#arrowhead); }
        .arrow-dashed { stroke-dasharray: 6,4; }
    ]]></style><marker id="arrowhead" markerHeight="5" markerWidth="5" orient="auto" refX="10" refY="5"><path d="M0,0 L10,5 L0,10 Z" fill="#636e72" /></marker></defs><rect class="layer-bg color-ds" height="100" width="900" x="50" y="40" /><text class="label-title" x="500" y="70">DATA SPACE LAYER (Physical Domain)</text><rect class="component-box color-ds" height="40" width="220" x="120" y="85" /><text class="label-header" x="230" y="110">Data Assets &amp; Distributions</text><rect class="component-box color-ds" height="40" width="220" x="660" y="85" /><text class="label-header" x="770" y="110">Data Apps &amp; Services</text><rect class="layer-bg" fill="#fdfdfd" height="520" stroke="#b2bec3" width="900" x="50" y="170" /><text class="label-title" x="500" y="195">SEMANTIC INTEROPERABILITY LAYER</text><rect class="layer-bg color-cred" height="240" width="220" x="70" y="230" /><text class="label-header" x="180" y="255">CRED / DCAT-AP 3.0</text><rect class="component-box color-cred" height="30" width="180" x="90" y="275" /><text class="label-text" x="180" y="295">dcat:Catalog</text><rect class="component-box color-cred" height="30" width="180" x="90" y="315" /><text class="label-text" x="180" y="335">dcat:Dataset</text><rect class="component-box color-cred" height="30" width="180" x="90" y="355" /><text class="label-text" x="180" y="375">dcat:DataService</text><rect class="component-box color-cred" height="30" width="180" x="90" y="395" /><text class="label-text" x="180" y="415">odrl:Policy</text><rect class="component-box color-cred" height="30" width="180" x="90" y="435" /><text class="label-text" x="180" y="455">foaf:Agent</text><rect class="layer-bg color-idsa" height="140" width="220" x="710" y="230" /><text class="label-header" x="820" y="255">IDSA ALIGNMENT</text><rect class="component-box color-idsa" height="30" width="180" x="730" y="275" /><text class="label-text" x="820" y="295">ids:DataResource</text><rect class="component-box color-idsa" height="30" width="180" x="730" y="315" /><text class="label-text" x="820" y="335">ids:DataApp</text><rect class="layer-bg color-edaan" height="440" width="380" x="310" y="230" /><text class="label-header" x="500" y="255">EDAAnOWL CORE (v1.0.0)</text><rect class="component-box color-edaan" height="60" width="160" x="330" y="275" /><text class="label-header" x="410" y="300">DataAsset</text><text class="label-italic" x="410" y="320">(Supply Side)</text><rect class="component-box color-edaan" height="60" width="160" x="510" y="275" /><text class="label-header" x="590" y="300">Smart Data App</text><text class="label-italic" x="590" y="320">(Demand Side)</text><rect class="layer-bg color-edaan" height="180" style="fill-opacity: 0.05; stroke-dasharray: 4,4;" width="340" x="330" y="350" /><text class="label-italic" x="500" y="370">V1.0.0 MATCHMAKING DECOUPLING</text><rect class="component-box color-edaan" height="35" width="300" x="350" y="385" /><text class="label-header" x="500" y="408">DataSpecification (Atomic Meaning)</text><rect class="component-box color-edaan" height="35" width="140" x="350" y="435" /><text class="label-text" x="420" y="458">FieldMapping</text><rect class="component-box color-edaan" height="35" width="140" x="510" y="435" /><text class="label-text" x="580" y="458">InputProfile</text><rect class="component-box color-edaan" height="35" width="140" x="350" y="480" /><text class="label-text" x="420" y="503">Metric / Unit</text><rect class="component-box color-edaan" height="35" width="140" x="510" y="480" /><text class="label-text" x="580" y="503">DataConstraint</text><rect class="component-box color-edaan" height="100" style="fill: #ffffff; stroke-dasharray: 2,2;" width="300" x="350" y="550" /><text class="label-header" x="500" y="575">Semantic Anchoring (SOSA)</text><text class="label-text" x="500" y="605">ObservableProperty &amp; FeatureOfInterest</text><text class="label-italic" x="500" y="630">(Cross-Domain Interoperability)</text><rect class="layer-bg color-bigowl" height="140" width="220" x="710" y="550" /><text class="label-header" x="820" y="575">BIGOWL ANALYTICS</text><rect class="component-box color-bigowl" height="30" width="180" x="730" y="600" /><text class="label-text" x="820" y="620">bigwf:Workflow</text><rect class="component-box color-bigowl" height="30" width="180" x="730" y="640" /><text class="label-text" x="820" y="660">bigwf:Component</text><line class="arrow" x1="230" x2="230" y1="125" y2="275" /><line class="arrow" x1="770" x2="770" y1="125" y2="275" /><line class="arrow arrow-dashed" x1="290" x2="330" y1="260" y2="275" /><line class="arrow" x1="710" x2="490" y1="260" y2="275" /><line class="arrow" x1="410" x2="420" y1="335" y2="435" /><line class="arrow" x1="420" x2="420" y1="470" y2="480" /><line class="arrow" x1="590" x2="580" y1="335" y2="435" /><line class="arrow" x1="420" x2="450" y1="435" y2="420" /><line class="arrow" x1="580" x2="550" y1="435" y2="420" /><line class="arrow" x1="500" x2="500" y1="420" y2="550" /><line class="arrow" x1="670" x2="730" y1="320" y2="330" /><line class="arrow" x1="820" x2="820" y1="370" y2="550" /></svg>