<?xml version="1.0" encoding="utf-8" ?>
<svg baseProfile="full" height="920px" version="1.1" width="1150px" xmlns="http://www.w3.org/2000/svg" xmlns:ev="http://www.w3.org/2001/xml-events" xmlns:xlink="http://www.w3.org/1999/xlink"><defs><style type="text/css"><![CDATA[
        @import url('https://fonts.googleapis.com/css2?family=Inter:wght@400;600&display=swap');
        
        text { font-family: 'Inter', sans-serif; fill: #2d3436; }
        .bg-canvas { fill: #ffffff; }
        
        /* Layer/Box Styles */
        .layer-box { rx: 12; ry: 12; stroke-width: 2; fill-opacity: 0.1; }
        .node-box { rx: 6; ry: 6; stroke-width: 1.5; fill: #ffffff; }
        
        /* Text Styles */
        .title { font-size: 20px; font-weight: 600; text-anchor: middle; letter-spacing: 1.5px; fill: #2c3e50; }
        .header { font-size: 15px; font-weight: 600; text-anchor: middle; }
        .text { font-size: 13px; text-anchor: middle; fill: #2d3436; }
        .italic { font-size: 12px; font-style: italic; text-anchor: middle; fill: #636e72; }
        .label { font-size: 11px; font-weight: 600; fill: #636e72; text-anchor: middle; }
        
        /* Thematic Colors */
        .theme-ds { fill: #3498db; stroke: #2980b9; }      /* Blue DataSpace */
        .theme-cred { fill: #9b59b6; stroke: #8e44ad; }    /* Purple CRED */
        .theme-edaan { fill: #2ecc71; stroke: #27ae60; }   /* Green EDAAnOWL */
        .theme-idsa { fill: #e74c3c; stroke: #c0392b; }    /* Red IDSA */
        .theme-bigowl { fill: #f1c40f; stroke: #f39c12; }  /* Yellow BIGOWL */
        
        /* Edges */
        .edge { stroke: #535c68; stroke-width: 2; fill: none; marker-end: url(#arrowhead); }
        .edge-dashed { stroke-dasharray: 6,5; }
        .edge-label-bg { fill: #ffffff; }
    ]]></style><marker id="arrowhead" markerHeight="8" markerUnits="strokeWidth" markerWidth="8" orient="auto" refX="8" refY="4"><path d="M 0 0 L 8 4 L 0 8 Z" fill="#535c68" /></marker></defs><rect class="bg-canvas" height="100%" width="100%" x="0" y="0" /><rect class="layer-box theme-ds" height="120" width="1050" x="50" y="40" /><text class="title" x="575.0" y="65">DATA SPACE (Physical Assets)</text><rect class="node-box theme-ds" height="45" width="200" x="180" y="90" /><text class="text" x="280.0" y="116.5">Data Assets &amp; Files</text><rect class="node-box theme-ds" height="45" width="200" x="770" y="90" /><text class="text" x="870.0" y="116.5">Algorithms &amp; Apps</text><rect class="layer-box theme-edaan" height="680" width="1050" x="50" y="200" /><text class="title" x="575.0" y="225">SEMANTIC INTEROPERABILITY (Ontology)</text><rect class="layer-box theme-cred" height="280" width="220" x="70" y="260" /><text class="title" x="180.0" y="285">CRED / DCAT-AP</text><rect class="node-box theme-cred" height="32" width="180" x="90" y="310" /><text class="text" x="180.0" y="330.0">dcat:Catalog</text><rect class="node-box theme-cred" height="32" width="180" x="90" y="350" /><text class="text" x="180.0" y="370.0">dcat:Dataset</text><rect class="node-box theme-cred" height="32" width="180" x="90" y="390" /><text class="text" x="180.0" y="410.0">dcat:DataService</text><rect class="node-box theme-cred" height="32" width="180" x="90" y="430" /><text class="text" x="180.0" y="450.0">odrl:Policy</text><rect class="node-box theme-cred" height="32" width="180" x="90" y="470" /><text class="text" x="180.0" y="490.0">foaf:Agent</text><rect class="layer-box theme-idsa" height="150" width="220" x="860" y="260" /><text class="title" x="970.0" y="285">IDSA STANDARDS</text><rect class="node-box theme-idsa" height="35" width="180" x="880" y="310" /><text class="text" x="970.0" y="331.5">ids:DataResource</text><rect class="node-box theme-idsa" height="35" width="180" x="880" y="360" /><text class="text" x="970.0" y="381.5">ids:DataApp</text><rect class="layer-box theme-bigowl" height="140" width="220" x="860" y="680" /><text class="title" x="970.0" y="705">BIGOWL ANALYTICS</text><rect class="node-box theme-bigowl" height="35" width="180" x="880" y="730" /><text class="text" x="970.0" y="751.5">bigwf:Workflow</text><rect class="node-box theme-bigowl" height="35" width="180" x="880" y="780" /><text class="text" x="970.0" y="801.5">bigwf:Component</text><rect class="layer-box theme-edaan" height="560" width="510" x="320" y="260" /><text class="title" x="575.0" y="285">EDAAnOWL CORE v1.2.0</text><rect class="node-box theme-edaan" height="50" width="180" x="350" y="310" /><text class="italic" x="440.0" y="352.0">(Supply Side)</text><text class="header" x="440.0" y="332.0">DataAsset</text><rect class="node-box theme-edaan" height="50" width="180" x="620" y="310" /><text class="italic" x="710.0" y="352.0">(Demand Side)</text><text class="header" x="710.0" y="332.0">SmartDataApp</text><rect class="layer-box theme-edaan" fill="#f1f8f1" height="220" stroke-dasharray="4,4" width="470" x="340" y="400" /><text class="italic" x="575" y="420">MATCHMAKING DECOUPLING</text><rect class="node-box theme-edaan" height="40" width="150" x="365" y="440" /><text class="text" x="440.0" y="464.0">DataProfile/FieldMap</text><rect class="node-box theme-edaan" height="40" width="150" x="365" y="495" /><text class="text" x="440.0" y="519.0">Metric / Unit</text><rect class="node-box theme-edaan" height="40" width="150" x="635" y="440" /><text class="text" x="710.0" y="464.0">Input/Output Profiles</text><rect class="node-box theme-edaan" height="40" width="150" x="635" y="495" /><text class="text" x="710.0" y="519.0">DataConstraint</text><rect class="node-box theme-edaan" height="45" width="330" x="410" y="560" /><text class="header" x="575.0" y="587.5">DataSpecification (Meaning)</text><rect class="node-box theme-edaan" height="75" width="470" x="340" y="720" /><text class="italic" x="575.0" y="774.5">(ObservableProperty / FeatureOfInterest / Unit URI)</text><text class="header" x="575.0" y="754.5">Semantic Anchoring (SOSA/QUDT)</text><path class="edge" d="M 280,135 L 280,170 L 440,170 L 440,310" /><text class="label" x="280" y="160">Describe</text><path class="edge" d="M 870,135 L 870,170 L 710,170 L 710,310" /><text class="label" x="870" y="160">Describe</text><path class="edge" d="M 440,360 L 440,440" /><path class="edge" d="M 440,480 L 440,560" /><path class="edge" d="M 710,360 L 710,440" /><path class="edge" d="M 710,480 L 710,560" /><path class="edge edge-dashed" d="M 575,605 L 575,720" /><path class="edge edge-dashed" d="M 270,326 L 350,326" /><path class="edge" d="M 880,327 L 835,327 L 835,290 L 510,290 L 510,310" /><path class="edge" d="M 800,345 L 860,345 L 860,377 L 880,377" /><path class="edge" d="M 970,395 L 970,680" /></svg>