<?xml version="1.0" encoding="utf-8" ?>
<svg baseProfile="full" height="600px" version="1.1" width="800px" xmlns="http://www.w3.org/2000/svg" xmlns:ev="http://www.w3.org/2001/xml-events" xmlns:xlink="http://www.w3.org/1999/xlink"><defs><style type="text/css"><![CDATA[
        .box { stroke: black; stroke-width: 1; rx: 5; ry: 5; }
        .text { font-family: Arial; font-size: 12px; text-anchor: middle; }
        .label { font-family: Arial; font-size: 14px; font-weight: bold; text-anchor: middle; }
        .arrow { stroke: black; stroke-width: 1; marker-end: url(#arrowhead); }
        .dashed { stroke-dasharray: 5,5; }
    ]]></style><marker id="arrowhead" markerHeight="10" markerWidth="10" orient="auto" refX="10" refY="5"><path d="M0,0 L10,5 L0,10" fill="black" /></marker></defs><rect class="box" fill="#e1f5fe" height="100" stroke="#01579b" width="700" x="50" y="50" /><text class="label" x="400" y="70">Data Space Layer</text><rect class="box" fill="#f5f5f5" height="350" stroke="#616161" width="700" x="50" y="180" /><text class="label" x="400" y="200">Semantic Layer</text><rect class="box" fill="#f8bbd0" height="120" stroke="#880e4f" width="200" x="70" y="220" /><text class="label" x="170" y="240">IDSA Model</text><rect class="box" fill="#c8e6c9" height="250" stroke="#1b5e20" width="200" x="300" y="220" /><text class="label" x="400" y="240">EDAAnOWL</text><rect class="box" fill="#fff9c4" height="120" stroke="#f57f17" width="200" x="530" y="220" /><text class="label" x="630" y="240">BIGOWL</text><rect class="box dashed" fill="#e0e0e0" height="30" stroke="#616161" width="200" x="300" y="490" /><text class="text" x="400" y="510">External (DQV, PROV)</text><rect class="box" fill="white" height="40" width="120" x="100" y="90" /><text class="text" x="160" y="115">Data Assets</text><rect class="box" fill="white" height="40" width="120" x="550" y="90" /><text class="text" x="610" y="115">Applications</text><rect class="box" fill="white" height="30" width="120" x="110" y="260" /><text class="text" x="170" y="280">ids:DataResource</text><rect class="box" fill="white" height="30" width="120" x="110" y="300" /><text class="text" x="170" y="320">ids:DataApp</text><rect class="box" fill="white" height="30" width="120" x="340" y="260" /><text class="text" x="400" y="280">DataAsset</text><rect class="box" fill="white" height="30" width="120" x="340" y="300" /><text class="text" x="400" y="320">SmartDataApp</text><rect class="box" fill="white" height="30" width="120" x="340" y="340" /><text class="text" x="400" y="360">DataProfile</text><rect class="box" fill="white" height="30" width="120" x="340" y="380" /><text class="text" x="400" y="400">Metric</text><rect class="box" fill="white" height="30" width="120" x="340" y="420" /><text class="text" x="400" y="440">ObservableProp</text><rect class="box" fill="white" height="30" width="120" x="570" y="260" /><text class="text" x="630" y="280">Component</text><rect class="box" fill="white" height="30" width="120" x="570" y="300" /><text class="text" x="630" y="320">Workflow</text><line class="arrow" x1="160" x2="160" y1="130" y2="260" /><line class="arrow" x1="610" x2="170" y1="130" y2="300" /><line class="arrow" x1="230" x2="340" y1="275" y2="275" /><line class="arrow" x1="230" x2="340" y1="315" y2="315" /><line class="arrow" x1="460" x2="570" y1="315" y2="275" /><line class="arrow" x1="630" x2="630" y1="290" y2="300" /><line class="arrow dashed" x1="400" x2="400" y1="410" y2="490" /></svg>